<svg xmlns="http://www.w3.org/2000/svg" version="1.1" xmlns:xlink="http://www.w3.org/1999/xlink" xmlns:svgjs="http://svgjs.com/svgjs" width="2560" height="1440" preserveAspectRatio="none" viewBox="0 0 2560 1440">
    <g mask="url(&quot;#SvgjsMask3435&quot;)" fill="none">
        <rect width="2560" height="1440" x="0" y="0" fill="url(#SvgjsLinearGradient3436)"></rect>
        <path d="M2688 1440L0 1440 L0 1099.67Q58.65 1030.33, 128 1088.98Q116.22 949.2, 256 937.42Q477.99 946.07, 469.3333333333333 1168.06Q459.31 1030.04, 597.3333333333333 1020.02Q685.99 895.34, 810.6666666666665 984Q959.27 919.27, 1023.9999999999998 1067.87Q1117.86 948.39, 1237.333333333333 1042.25Q1362.55 954.13, 1450.6666666666663 1079.35Q1453.66 954.35, 1578.6666666666663 957.34Q1675.02 840.36, 1791.9999999999995 936.72Q1899.76 916.49, 1919.9999999999995 1024.25Q2044.29 935.21, 2133.333333333333 1059.5Q2201.2 914.04, 2346.6666666666665 981.91Q2425.15 932.39, 2474.6666666666665 1010.87Q2647.78 970.65, 2688 1143.77z" fill="rgba(37, 70, 125, 1)"></path>
        <path d="M2688 1440L0 1440 L0 1160.91Q181.24 1128.81, 213.33333333333331 1310.05Q287.6 1170.98, 426.66666666666663 1245.24Q465.14 1155.72, 554.6666666666666 1194.19Q629.87 1141.39, 682.6666666666666 1216.6Q846.45 1167.05, 896 1330.83Q944.2 1251.03, 1024 1299.24Q1089.06 1150.96, 1237.3333333333333 1216.02Q1373.52 1138.87, 1450.6666666666665 1275.06Q1576.87 1187.93, 1663.9999999999998 1314.14Q1720.91 1243.06, 1791.9999999999998 1299.97Q1793.58 1173.55, 1919.9999999999998 1175.13Q2033.87 1075.66, 2133.333333333333 1189.53Q2265.47 1108.34, 2346.6666666666665 1240.48Q2431.85 1197.66, 2474.6666666666665 1282.85Q2591.54 1186.39, 2688 1303.27z" fill="rgba(255, 255, 255, 1)"></path>
        <path d="M2602.6666666666665 1440L0 1440 L0 1305.82Q173.94 1266.42, 213.33333333333331 1440.36Q286.24 1299.93, 426.66666666666663 1372.84Q446.96 1265.13, 554.6666666666666 1285.43Q626.43 1229.19, 682.6666666666666 1300.95Q829.83 1234.78, 896 1381.94Q1014.06 1372, 1024 1490.06Q1109.22 1361.94, 1237.3333333333333 1447.16Q1285.53 1282.02, 1450.6666666666665 1330.22Q1524.28 1275.83, 1578.6666666666665 1349.44Q1687.6 1330.38, 1706.6666666666665 1439.31Q1827.94 1347.25, 1919.9999999999998 1468.53Q1992.28 1327.48, 2133.333333333333 1399.76Q2193.55 1246.64, 2346.6666666666665 1306.85Q2405.12 1237.3, 2474.6666666666665 1295.75Q2601.82 1294.9, 2602.6666666666665 1422.06z" fill="rgba(255, 255, 255, 1)"></path>
    </g>
    <defs>
        <mask id="SvgjsMask3435">
            <rect width="2560" height="1440" fill="#ffffff"></rect>
        </mask>
        <linearGradient x1="50%" y1="100%" x2="50%" y2="0%" gradientUnits="userSpaceOnUse" id="SvgjsLinearGradient3436">
            <stop stop-color="rgba(49, 158, 255, 1)" offset="0"></stop>
            <stop stop-color="rgba(42, 54, 91, 1)" offset="1"></stop>
        </linearGradient>
    </defs>
</svg>