<?xml version="1.0" standalone="no"?>
<!DOCTYPE svg PUBLIC "-//W3C//DTD SVG 20010904//EN"
 "http://www.w3.org/TR/2001/REC-SVG-20010904/DTD/svg10.dtd">
<svg version="1.0" xmlns="http://www.w3.org/2000/svg"
 width="1024.000000pt" height="1024.000000pt" viewBox="0 0 1024.000000 1024.000000"
 preserveAspectRatio="xMidYMid meet">
<metadata>
Created by potrace 1.14, written by Peter Selinger 2001-2017
</metadata>
<g transform="translate(0.000000,1024.000000) scale(0.100000,-0.100000)"
fill="#000000" stroke="none">
<path d="M0 5120 l0 -5120 5120 0 5120 0 0 5120 0 5120 -5120 0 -5120 0 0
-5120z m3258 3375 c97 -14 198 -40 217 -55 6 -4 43 -21 83 -38 211 -88 435
-303 554 -533 38 -72 102 -234 117 -294 53 -211 53 -547 0 -762 -18 -70 -85
-238 -126 -313 -70 -129 -200 -283 -308 -367 -123 -94 -304 -181 -460 -220
-102 -25 -468 -25 -575 0 -87 20 -276 95 -329 130 -20 13 -49 32 -64 41 -78
48 -237 204 -302 297 -84 118 -176 315 -204 434 -53 231 -53 537 1 770 30 130
126 334 213 450 157 210 345 344 603 429 130 44 402 58 580 31z m3265 -16 c39
-11 76 -33 147 -89 62 -49 113 -162 165 -370 9 -36 27 -96 40 -135 13 -38 42
-135 65 -215 23 -80 57 -194 77 -255 19 -60 45 -153 59 -205 13 -52 29 -106
35 -120 6 -14 26 -77 44 -140 18 -63 36 -115 40 -115 4 0 23 52 42 115 74 247
93 314 93 328 0 8 6 28 14 45 8 18 26 70 40 117 49 164 87 295 101 345 7 28
30 104 50 170 20 66 45 152 57 190 11 39 36 103 55 143 30 64 43 79 107 126
40 30 90 59 112 65 54 15 172 14 225 -2 95 -29 205 -137 228 -224 13 -51 48
-243 66 -373 22 -148 54 -338 66 -381 5 -20 23 -126 39 -235 16 -110 50 -318
75 -464 80 -464 99 -598 92 -670 -8 -96 -67 -176 -153 -211 -37 -15 -180 -15
-217 0 -40 16 -107 71 -123 102 -7 15 -20 69 -29 120 -9 52 -25 146 -35 209
-11 63 -40 261 -65 440 -88 625 -118 814 -129 790 -7 -18 -34 -106 -86 -290
-22 -74 -58 -198 -80 -275 -23 -77 -56 -196 -74 -265 -19 -69 -39 -137 -45
-152 -5 -15 -29 -96 -51 -180 -23 -84 -50 -177 -61 -206 -10 -29 -19 -60 -19
-70 0 -36 -58 -139 -96 -170 -65 -54 -99 -65 -199 -65 -100 0 -134 11 -198 64
-44 36 -74 90 -97 174 -55 196 -86 302 -116 400 -19 61 -47 160 -63 220 -16
61 -54 198 -85 305 -31 107 -63 222 -72 255 -9 33 -25 83 -35 110 -10 28 -23
70 -30 95 -6 25 -14 49 -17 54 -3 6 -14 -37 -23 -95 -17 -99 -130 -882 -144
-999 -4 -30 -11 -71 -15 -90 -5 -19 -18 -96 -29 -170 -27 -182 -36 -208 -84
-254 -57 -54 -98 -69 -192 -69 -89 0 -120 10 -177 54 -75 60 -101 160 -79 304
44 294 94 596 121 735 11 58 31 186 45 285 14 99 32 205 39 235 8 30 24 118
36 195 35 234 81 504 90 536 25 86 135 197 224 225 50 16 178 18 229 3z m1100
-4155 c52 -18 120 -84 143 -141 13 -30 15 -163 15 -942 0 -1024 4 -960 -81
-1154 -62 -141 -161 -233 -319 -297 -104 -43 -181 -53 -350 -48 -207 7 -322
39 -463 130 -94 61 -171 207 -153 291 20 90 78 160 151 184 53 16 59 16 120 0
36 -9 109 -38 162 -64 95 -47 99 -48 194 -48 93 0 98 1 127 29 17 17 41 50 54
75 l22 46 5 890 c6 980 1 907 67 985 61 73 197 101 306 64z m-3946 -9 c65 -19
146 -102 163 -166 28 -101 -12 -224 -88 -276 -56 -37 -116 -43 -467 -43 l-335
0 0 -260 0 -260 98 0 c556 -2 579 -5 652 -87 103 -118 71 -298 -68 -385 -36
-23 -42 -23 -359 -26 l-322 -3 -3 -432 c-4 -492 -3 -486 -87 -556 -72 -60 -88
-65 -181 -65 -96 0 -125 11 -189 72 -75 71 -72 12 -69 1228 l3 1079 25 50 c29
58 99 112 169 131 73 20 990 19 1058 -1z"/>
<path d="M2920 8011 c-176 -33 -327 -144 -427 -316 -53 -92 -95 -234 -114
-389 -23 -188 27 -453 113 -606 55 -98 143 -188 232 -239 102 -58 193 -81 321
-81 363 0 598 239 661 670 17 122 17 182 -1 302 -40 270 -145 459 -315 568
-110 70 -179 91 -315 95 -60 2 -130 0 -155 -4z"/>
</g>
</svg>
