<?xml version="1.0" standalone="no"?>
<!DOCTYPE svg PUBLIC "-//W3C//DTD SVG 20010904//EN"
 "http://www.w3.org/TR/2001/REC-SVG-20010904/DTD/svg10.dtd">
<svg version="1.0" xmlns="http://www.w3.org/2000/svg"
 width="1080.000000pt" height="1080.000000pt" viewBox="0 0 1080.000000 1080.000000"
 preserveAspectRatio="xMidYMid meet">
<metadata>
Created by potrace 1.14, written by Peter Selinger 2001-2017
</metadata>
<g transform="translate(0.000000,1080.000000) scale(0.100000,-0.100000)"
fill="#000000" stroke="none">
<path d="M2415 8879 c-111 -9 -292 -39 -375 -63 -310 -92 -565 -275 -737 -531
-48 -72 -115 -201 -139 -270 -10 -27 -21 -54 -24 -60 -13 -18 -60 -218 -75
-320 -8 -55 -18 -147 -22 -205 -9 -138 -9 -3617 0 -3740 11 -147 17 -198 37
-295 66 -326 181 -554 384 -760 182 -185 391 -296 676 -360 58 -14 131 -27
161 -30 30 -4 68 -8 84 -11 61 -9 443 -12 545 -4 471 39 813 195 1051 480 62
75 139 188 139 205 0 8 4 16 9 19 30 19 138 309 157 423 2 15 9 51 14 78 6 28
13 73 15 100 3 28 8 66 12 85 8 51 11 3709 2 3810 -18 212 -32 296 -72 440
-102 364 -310 640 -612 813 -184 105 -423 174 -680 195 -134 11 -401 12 -550
1z m407 -968 c151 -59 243 -188 282 -396 13 -70 15 -326 13 -1995 -2 -1908 -2
-1915 -23 -1986 -11 -39 -34 -97 -50 -130 -33 -68 -121 -160 -179 -188 -22
-10 -47 -22 -56 -26 -17 -9 -82 -23 -109 -25 -38 -1 -139 28 -192 57 -98 52
-170 146 -212 276 -44 134 -44 118 -42 2092 1 1031 5 1889 9 1905 4 17 12 53
18 80 18 80 72 187 120 237 54 57 136 103 214 122 72 17 119 12 207 -23z"/>
<path d="M5207 8813 c-4 -3 -7 -1470 -7 -3260 l0 -3253 540 0 540 0 1 1718 1
1717 23 -135 c13 -74 26 -151 29 -170 4 -29 16 -99 41 -239 2 -13 7 -45 11
-70 4 -25 8 -55 10 -66 3 -11 7 -36 10 -55 3 -19 7 -46 10 -60 2 -14 9 -56 14
-94 6 -37 12 -71 14 -75 2 -3 6 -28 10 -56 3 -27 8 -60 10 -71 2 -12 7 -39 11
-60 7 -48 8 -54 40 -244 15 -85 28 -168 30 -185 2 -16 18 -111 35 -210 17 -99
33 -196 36 -215 3 -19 28 -170 55 -335 27 -165 52 -313 55 -330 2 -16 9 -55
14 -85 5 -30 12 -68 14 -85 3 -16 26 -153 51 -304 25 -150 45 -278 45 -282 0
-5 260 -9 580 -9 457 0 580 3 581 13 0 6 2 21 5 32 4 21 9 51 19 130 4 28 9
59 11 70 4 19 17 99 28 177 3 21 8 53 11 70 6 41 54 360 61 408 3 19 7 46 9
60 3 14 11 72 20 130 17 112 23 150 30 190 2 14 6 41 9 60 3 19 7 55 11 80 3
25 10 70 15 100 5 30 12 73 15 95 3 22 10 65 15 95 5 30 12 78 16 105 3 28 8
57 9 67 2 9 7 38 11 65 3 26 8 55 9 63 2 8 6 40 10 70 4 30 9 64 11 75 2 11
11 65 19 120 29 194 36 240 40 265 2 14 7 43 10 65 3 22 8 51 10 65 3 14 7 39
9 55 7 46 17 117 21 145 2 14 11 68 19 120 8 52 18 115 21 140 6 42 15 106 31
205 3 22 8 42 10 44 2 2 4 -757 4 -1687 l0 -1692 578 0 578 0 0 3253 c0 2294
-3 3254 -10 3259 -6 4 -364 8 -796 8 -432 0 -790 -4 -796 -8 -7 -4 -15 -29
-18 -57 -4 -27 -9 -57 -11 -65 -2 -8 -6 -37 -10 -65 -3 -27 -10 -75 -15 -105
-5 -30 -12 -73 -15 -95 -3 -22 -8 -53 -11 -70 -3 -16 -7 -41 -8 -55 -7 -55
-27 -188 -31 -211 -3 -13 -7 -44 -10 -69 -4 -25 -10 -67 -15 -95 -5 -27 -11
-68 -14 -90 -3 -22 -14 -98 -25 -170 -11 -71 -23 -148 -26 -170 -4 -22 -8 -51
-10 -64 -2 -13 -7 -45 -11 -70 -3 -25 -8 -57 -10 -71 -11 -65 -24 -149 -29
-190 -3 -25 -8 -56 -10 -70 -2 -14 -11 -70 -19 -125 -18 -119 -23 -152 -41
-270 -8 -49 -16 -108 -20 -130 -3 -22 -12 -80 -20 -130 -14 -87 -17 -109 -30
-205 -3 -25 -10 -67 -15 -95 -5 -27 -19 -115 -30 -195 -11 -80 -23 -156 -25
-170 -2 -14 -7 -43 -10 -65 -4 -22 -8 -51 -10 -65 -2 -14 -13 -88 -25 -165
-11 -77 -23 -151 -25 -165 -3 -14 -7 -45 -10 -70 -3 -25 -8 -54 -10 -66 -6
-26 -25 -154 -31 -210 -7 -56 -22 -106 -24 -79 -1 11 -3 29 -5 40 -3 19 -14
83 -21 130 -1 11 -19 116 -38 232 -20 117 -39 229 -42 250 -3 21 -7 49 -10 63
-4 24 -7 45 -38 241 -8 53 -17 109 -20 125 -6 29 -80 483 -92 558 -3 21 -8 48
-10 60 -2 11 -7 41 -9 66 -3 25 -8 52 -11 61 -2 9 -7 34 -9 55 -3 20 -7 49
-10 63 -2 14 -18 107 -34 206 -16 99 -32 196 -36 215 -3 19 -8 49 -11 65 -2
17 -6 41 -9 55 -2 14 -7 45 -10 70 -3 25 -8 56 -10 70 -3 14 -8 36 -10 50 -3
14 -8 45 -11 70 -3 25 -7 52 -9 60 -3 8 -7 33 -10 55 -7 44 -71 433 -79 480
-3 17 -8 48 -11 70 -11 69 -25 159 -29 180 -2 11 -6 41 -10 66 -4 25 -9 57
-11 70 -3 13 -13 75 -23 138 -12 67 -25 117 -33 122 -16 10 -1583 12 -1592 2z"/>
</g>
</svg>
