<?xml version="1.0" standalone="no"?>
<!DOCTYPE svg PUBLIC "-//W3C//DTD SVG 20010904//EN"
 "http://www.w3.org/TR/2001/REC-SVG-20010904/DTD/svg10.dtd">
<svg version="1.0" xmlns="http://www.w3.org/2000/svg"
 width="500.000000pt" height="500.000000pt" viewBox="0 0 500.000000 500.000000"
 preserveAspectRatio="xMidYMid meet">
<metadata>
Created by potrace 1.14, written by Peter Selinger 2001-2017
</metadata>
<g transform="translate(0.000000,500.000000) scale(0.100000,-0.100000)"
fill="#000000" stroke="none">
<path d="M575 4985 c-153 -29 -252 -82 -365 -195 -68 -67 -94 -103 -128 -170
-84 -169 -77 23 -77 -2120 0 -2142 -7 -1949 77 -2120 58 -119 177 -238 298
-298 169 -84 -23 -77 2120 -77 1785 0 1909 1 1970 18 236 63 417 236 499 475
l26 77 0 1920 0 1920 -23 75 c-40 128 -88 206 -182 300 -67 68 -103 94 -170
128 -170 84 29 77 -2090 79 -1528 1 -1898 -1 -1955 -12z m1585 -915 l0 -109
113 -3 112 -3 3 -557 2 -557 -112 -3 -113 -3 -3 -112 -3 -113 -559 0 -560 0 0
115 0 115 -110 0 -110 0 0 560 0 560 110 0 110 0 0 110 0 110 560 0 560 0 0
-110z m900 0 l0 -110 110 0 109 0 3 -112 3 -113 113 -3 112 -3 0 116 0 115
110 0 110 0 0 110 0 110 225 0 225 0 0 -785 0 -785 -225 0 -225 0 0 450 0 450
-110 0 -110 0 0 -225 0 -225 -115 0 -115 0 0 225 0 225 -110 0 -110 0 0 -450
0 -450 -225 0 -225 0 0 785 0 785 225 0 225 0 0 -110z m-672 -1792 l-3 -113
-557 -3 -558 -2 0 -220 0 -220 445 0 445 0 0 -115 0 -115 -445 0 -445 0 0
-335 0 -335 -225 0 -225 0 0 785 0 785 785 0 786 0 -3 -112z m1792 -563 l0
-675 -110 0 -110 0 0 -110 0 -110 -560 0 -560 0 0 110 0 109 -112 3 -113 3 -3
113 -3 112 226 0 225 0 0 -115 0 -115 335 0 335 0 0 675 0 675 225 0 225 0 0
-675z"/>
<path d="M1270 3400 l0 -560 335 0 335 0 0 560 0 560 -335 0 -335 0 0 -560z"/>
</g>
</svg>
